<svg id="Layer_1" data-name="Layer 1" xmlns="http://www.w3.org/2000/svg" viewBox="0 0 4338.63 2987.21"><path d="M3736.72,1788.71c0,351.72-286.35,638.07-638.07,638.07s-638.07-286.35-638.07-638.07c0-187.81,82.45-357.57,212.21-474.16L2580.1,1175l-502.94,667.82c-17.08,24.39-43.91,37.08-72.69,37.08H1724c-43.91,308.79-308.79,546.84-630.75,546.84-351.72,0-638.07-286.35-638.07-638.07s286.35-638.06,638.07-638.06a634.62,634.62,0,0,1,305.86,78L1594.7,968.2H1543c-49.76,0-90.74-41.46-90.74-91.22s41-91.22,90.74-91.22h279.52V968.2l687.33.49-1.46-417.57H2234.24c-49.76,0-91.23-41.47-91.23-91.23s41.47-91.22,91.23-91.22h364.4c40,0,75.61,21,75.61,63.42l1,536.6L2825,1213.09c82.92-39.52,175.12-62.44,273.66-62.44,351.72,0,638.07,286.35,638.07,638.06Zm-2392.27,51.71H1091.27c-42.44,0-66.83-48.78-41-82.44l151.22-202a253.82,253.82,0,0,0-110.25-24.87c-141.95,0-257.56,115.61-257.56,257.56s115.61,257.57,257.56,257.57A257.6,257.6,0,0,0,1344,1840.42ZM1194.2,1737h150.25A261.08,261.08,0,0,0,1284,1618Zm2154.7,51.7c0-137.56-112.68-250.25-250.25-250.25-33.66,0-64.88,7.32-94.63,19l136.1,202.93c15.61,23.42,9.27,54.64-13.17,69.76-8.79,6.34-19,8.29-28.3,8.29-16.58,0-32.19-7.8-41.46-22.44l-136.1-202.93c-44.4,44.88-72.69,106.83-72.69,175.61,0,137.57,112.69,250.26,250.25,250.26s249.77-112.69,249.77-250.26h.48Z" fill="#fff" fill-rule="evenodd"/></svg>