<svg id="Layer_1" data-name="Layer 1" xmlns="http://www.w3.org/2000/svg" viewBox="0 0 36.7 30.2"><path d="M40.6,20.3c-.3-1.4-.7-4-.9-5.4a5.11,5.11,0,0,0-4.1-4.4A85.49,85.49,0,0,0,25,9.9a85.49,85.49,0,0,0-10.6.6,5.35,5.35,0,0,0-4.1,4.4c-.2,1.4-.7,4-.9,5.4a5.22,5.22,0,0,0-2.7,4.5v5.6a5,5,0,0,0,1.7,3.8v4.7a1.16,1.16,0,0,0,1.2,1.2H13a1.16,1.16,0,0,0,1.2-1.2V37H35.8v1.9A1.16,1.16,0,0,0,37,40.1h3.5a1.16,1.16,0,0,0,1.2-1.2V34.2a5.2,5.2,0,0,0,1.7-3.8V24.8A5.53,5.53,0,0,0,40.6,20.3Zm-27.9-5a2.84,2.84,0,0,1,2-2.4A80.53,80.53,0,0,1,25,12.3a80.53,80.53,0,0,1,10.3.6,2.71,2.71,0,0,1,2,2.4c.2,1.1.5,3,.8,4.4H11.9C12.2,18.3,12.5,16.4,12.7,15.3Zm-.3,15.2a2,2,0,1,1,2-2A2,2,0,0,1,12.4,30.5Zm18.5-1.2H19.1a.9.9,0,0,1,0-1.8H30.8a.9.9,0,0,1,.9.9A.77.77,0,0,1,30.9,29.3Zm6.7,1.2a2,2,0,1,1,2-2A1.94,1.94,0,0,1,37.6,30.5Z" transform="translate(-6.7 -9.9)" fill="#fff"/></svg>