<svg id="Layer_1" data-name="Layer 1" xmlns="http://www.w3.org/2000/svg" viewBox="0 0 100 79.46"><path d="M65,26.48H81.4a4.28,4.28,0,0,1,3.22,1.41h-12a3.5,3.5,0,0,0-3.49,3.48v12.2a3.49,3.49,0,0,0,3.49,3.49H90.31v.59H88.07a2.64,2.64,0,0,0-2.62,2.63v2.53a2.63,2.63,0,0,0,2.62,2.62h2.26a1.74,1.74,0,0,1-1.63,1.85H83.22a8.77,8.77,0,0,0-17.53,0H65Zm9.44,28.17a2.63,2.63,0,1,0,2.63,2.63h0A2.63,2.63,0,0,0,74.44,54.65Zm0-4.38a7,7,0,1,0,7,7h0A7,7,0,0,0,74.44,50.27Zm0,2.63a4.39,4.39,0,1,0,4.38,4.4v0A4.4,4.4,0,0,0,74.44,52.9Zm-48.9,1.75a2.63,2.63,0,1,0,2.63,2.63h0A2.63,2.63,0,0,0,25.54,54.65Zm0-4.38a7,7,0,1,1-7,7h0A7,7,0,0,1,25.54,50.27Zm0,2.63a4.39,4.39,0,1,1-4.38,4.4v0A4.4,4.4,0,0,1,25.54,52.9Zm64.79-3.49H88.07a.88.88,0,0,0-.86.87v2.53a.86.86,0,0,0,.86.87h2.26ZM63.27,57.28h-29a8.77,8.77,0,0,0-17.53,0H11.41a1.74,1.74,0,0,1-1.74-1.73V47.49h53.6ZM9.67,45.74V16.92a1.74,1.74,0,0,1,1.74-1.74H61.53a1.74,1.74,0,0,1,1.74,1.74h0V45.74ZM85.6,29.64h-13a1.75,1.75,0,0,0-1.73,1.73v12.2a1.73,1.73,0,0,0,1.73,1.74H90Z" fill="#fff" fill-rule="evenodd"/></svg>