<svg id="Layer_1" data-name="Layer 1" xmlns="http://www.w3.org/2000/svg" viewBox="0 0 846.66 564.99"><path d="M782,374.55a4.82,4.82,0,0,0-3.95-3.95q-3.23-.74-12.58-.73c-5.27,0-7.19-1.93-7.19-7.18,0-18.4.24-37-.72-55.36-.11-2.88-74.55-187.19-81.23-209.19-1.91-6.7-6.12-11.44-12.94-12.21C528,70.53,284.55,74.42,124.27,74.42c-35.22,0-55.35,18.37-55.35,54.64V346.87c0,8.3,1.83,6.47,9.34,6.47q159.6.72,479.49.72c11.92,0,10.51,18,0,18L247.2,369.87c14.31,6.3,32.84,43.53,34.51,60.39.42,4.26,1.45,5,5.75,5h243c4.76,0,6.24-1,7.19-5.74,8.63-56.23,67.93-91.27,121.48-70.46q46.74,18,56.8,69c0,4.48,1.13,8.25,6.47,7.19q27.32,0,40.25-.72,18.69,0,20.13-20.12c0-10,1.27-31-.72-39.9ZM189,249.83c0,6.69-3.1,9.57-9.35,9.34-6.41-.23-16.31,1.54-21.56-1.07-10.8-5.42-3.84-28.4-30.19-28.4-14.51,0-22.48,12.09-26.6,24.44v.72c-3,8.8-10.78,2.42-10.78-1.44v-115c0-6.66,2-8.63,8.63-8.63h81.23c6.8,0,8.62,2.85,8.62,9.35Zm111.42,11.5q-21.56,0-33.06.71c-3.35,0-5.27-1.43-5.75-4.31-6.34-6.38-5.34-14.87-20.49-15.81-7.89-.48-15.47,3.8-19.77,12.94-4,8.6-9.3,7.55-9.35-1.44l-.71-112.14c0-6.71,3.13-10.18,9.34-10.07,17.74.35,44.34.72,79.79.72q9.36-.72,9.35,8.62V252.71c0,6.8-2.83,8.62-9.35,8.62Zm128-10.78c0,11.1-10.46,10.9-11.51,5.75-3.88-3.93-4.39-24.45-24.8-24.45-8.3,0-21.15,5.6-21.92,17.26-.32,4.81-2,7.91-4.67,9.34-3.74,2-21,1.44-27,1.44-6.81,0-8.63-2.82-8.63-9.34V139.12c0-6.68,2.66-9.35,9.34-9.35,26.57,1.07,53.81,0,80.52,0q8.64,0,8.63,8.63V250.55Zm112.86,10.06H516.06c-4.52,0-5.44-1.64-6.47-5.75-8.1-32.44-38.6-32.44-46.73,0,0,10.53-13.13,5.16-10.78-4.31,0-36.09-1.08-72.58,0-108.55,0-10,1.62-11.51,11.5-11.51h75.49c9.31,0,11.5,1.22,11.5,10.79V250.55c0,6.71-3.13,10.06-9.35,10.06Zm134.43.72H611c-10.81,0-15.09-3.3-15.09-14.38V140.55c0-12.32,2.77-15.09,15.09-15.09H631.8q14.38.72,20.13,15.09l36.66,99.22c2.41,12.08,3.25,21.56-12.94,21.56ZM191.85,369.87c-65,0-98,80.3-52.12,126.16,28.66,28.67,76,28.2,104.59-.35,47.58-47.56,9.07-125.81-52.47-125.81Zm-23.72,97.77c-16.86-16.85-9.74-52.38,23-53.91,32.49,0,39.88,37,23,53.91C203.45,478.34,178.82,478.33,168.13,467.64Zm458.63-97.77c-57.19,1.35-92.25,62.44-63.25,111.07,37.77,63.43,135.53,39.37,137.3-37,0-38.57-35.47-74.05-74-74.05ZM603,467.64c-17.57-16.13-9.49-53.91,23-53.91,20.61,0,30.91,16.16,30.91,31.62C654.15,476.22,620.1,483.3,603,467.64ZM138.65,369.87h-69c-4.1,0-5.75.7-5.75,5,0,14.47-3,43.86,7.55,53.91Q79,436,96.24,435.29c4.82,0,6.51-1.07,6.47-5.74-.17-20.4,18.58-50.94,35.94-59.68ZM250.79,170C221,170,204.35,207,226.71,229.34c13.7,13.68,34.94,14.06,48.53,0C297.45,206.31,281.09,170,250.79,170Zm245.86-14.38c-31.1-1.55-45.79,36.86-24.44,58.24,13.81,13.8,34.83,14.14,48.52,0,22-22.78,6.49-58.24-24.08-58.24Zm-115,4.31c-30.33,0-47.33,36.78-25.16,58.95,13.88,13.87,34.79,14,48.89.37C427.88,197.47,411.23,161.53,381.63,160Zm-246.57-5.74c-30.36,0-46.77,36.6-24.8,58.59,13.42,13.42,35.45,14.27,48.88.35C180.5,191,165.74,154.22,135.06,154.22Z" fill="#fff"/></svg>